<svg width="292.89mm" height="270.93mm" version="1.1" viewBox="0 0 292.89 270.93" xmlns="http://www.w3.org/2000/svg">
 <style/>
 <g transform="translate(8.8635 -42.182)">
  <path d="m131.37 307.14c-0.65485-0.0561-2.7384-0.23217-4.6302-0.39129s-5.5038-0.6341-8.0268-1.0555c-41.115-6.8676-75.173-35.773-88.657-75.245-9.022-26.411-7.9797-55.141 2.9267-80.664 9.373-21.935 25.452-40.189 46.529-52.824 2.5149-1.5076 8.7472-4.7703 9.112-4.7703 0.08165 0 0.14844 8.3657 0.14844 18.59v18.59l-2.0446 1.584c-2.9431 2.2802-10.223 9.5826-12.79 12.829-5.1313 6.4906-10.19 15.517-12.827 22.886-1.5928 4.4514-3.1232 10.476-3.8376 15.106-0.72104 4.6736-0.99232 14.695-0.53127 19.626 0.93912 10.045 3.4703 18.891 8.0867 28.263 4.046 8.214 8.6979 14.742 15.08 21.16 9.9057 9.9624 21.913 17.09 35.172 20.878 7.6073 2.1733 14.06 3.0489 22.471 3.0489 13.021 0 24.128-2.5873 35.755-8.3288 5.1492-2.5427 8.8054-4.7809 12.965-7.9364 17.282-13.111 28.292-31.867 31.534-53.717 0.67409-4.5435 0.67232-17.173-3e-3 -21.696-2.3937-16.03-8.6082-29.721-18.982-41.818-2.6026-3.035-7.8389-8.0918-10.575-10.213l-2.1058-1.6323v-18.61c0-10.236 0.0617-18.61 0.1371-18.61 0.2402 0 5.4723 2.6679 7.6681 3.91 3.5889 2.0302 10.951 7.0296 14.288 9.702 10.903 8.7334 19.907 18.982 26.822 30.53 14.225 23.756 19.106 51.878 13.769 79.322-6.7232 34.574-29.495 64.312-61.179 79.894-12.155 5.9778-24.697 9.6244-38.182 11.101-3.4868 0.38184-15.548 0.70987-18.092 0.49201zm2.6458-129.9c-2.2595-0.48528-5.6107-2.1704-7.3291-3.6854-1.8489-1.6299-3.8057-4.6245-4.5931-7.029l-0.64548-1.9711v-103.45l0.64548-1.9711c0.78742-2.4045 2.7442-5.3991 4.5931-7.029 1.761-1.5525 5.092-3.2043 7.4614-3.7001 7.2407-1.515 14.527 2.0544 17.702 8.6716 0.64415 1.3426 1.3003 3.0721 1.458 3.8432 0.4037 1.9731 0.4037 101.85 0 103.82-0.15778 0.77115-0.8139 2.5006-1.458 3.8432-3.187 6.6426-10.557 10.22-17.834 8.6568z" fill="#41404c" stroke-width=".26458"/>
 </g>
</svg>
